<svg width="112" height="112" viewBox="0 0 112 112" fill="none" xmlns="http://www.w3.org/2000/svg">
<path fill-rule="evenodd" clip-rule="evenodd" d="M56 112C86.9279 112 112 86.9279 112 56C112 25.0721 86.9279 0 56 0C25.0721 0 0 25.0721 0 56C0 86.9279 25.0721 112 56 112ZM28.3685 27.0783C35.5334 20.2312 45.2381 16.0193 55.9266 16.0001C77.9926 15.9605 96.0002 33.9344 96 56.0004C95.9998 78.0915 78.0913 96 56 96C45.6894 96 36.29 92.0989 29.1971 85.6923C28.3724 84.9474 28.3335 83.6663 29.1194 82.8805L35.5164 76.4834C36.2361 75.7639 37.3914 75.7231 38.1564 76.3942C43.0973 80.7294 49.3666 83.0968 56 83.0968C71.1316 83.0968 82.9735 70.8402 83.0958 56.2336C83.2247 40.836 70.6626 28.7755 55.7597 28.9042C48.9163 28.9633 42.4748 31.5452 37.4968 36.2063L44.2306 42.9402C46.6692 45.3789 44.9421 49.5484 41.4934 49.5484H19.871C17.7331 49.5484 16 47.8154 16 45.6775V24.0551C16 20.6064 20.1695 18.8793 22.6082 21.318L28.3685 27.0783Z" fill="white"/>
</svg>
