<svg width="112" height="112" viewBox="0 0 112 112" fill="none" xmlns="http://www.w3.org/2000/svg">
<path fill-rule="evenodd" clip-rule="evenodd" d="M56 112C86.9279 112 112 86.9279 112 56C112 25.0721 86.9279 0 56 0C25.0721 0 0 25.0721 0 56C0 86.9279 25.0721 112 56 112ZM83.6315 27.0783C76.4666 20.2312 66.7619 16.0193 56.0734 16.0001C34.0074 15.9605 15.9998 33.9344 16 56.0004C16.0002 78.0915 33.9087 96 56 96C66.3106 96 75.71 92.0989 82.8029 85.6923C83.6276 84.9474 83.6665 83.6663 82.8806 82.8805L76.4836 76.4834C75.7639 75.7639 74.6086 75.7231 73.8436 76.3942C68.9027 80.7294 62.6334 83.0968 56 83.0968C40.8684 83.0968 29.0265 70.8402 28.9042 56.2336C28.7753 40.836 41.3374 28.7755 56.2403 28.9042C63.0837 28.9633 69.5252 31.5452 74.5032 36.2063L67.7694 42.9402C65.3308 45.3789 67.0579 49.5484 70.5066 49.5484H92.129C94.2669 49.5484 96 47.8154 96 45.6775V24.0551C96 20.6064 91.8305 18.8793 89.3918 21.318L83.6315 27.0783Z" fill="white"/>
</svg>
